<svg xmlns="http://www.w3.org/2000/svg" width="147" height="84" viewBox="0 0 147 84" fill="none">
<path d="M41 11.7118C40.9997 11.7327 40.995 11.7533 40.9861 11.7721C40.9772 11.7909 40.9644 11.8074 40.9487 11.8206C40.9329 11.8337 40.9144 11.8431 40.8947 11.8481C40.875 11.8531 40.8544 11.8536 40.8345 11.8495C40.2999 11.7517 39.7575 11.7066 39.2145 11.7149C36.1295 11.7149 33.6491 14.2214 33.6491 18.0585V29.8577C33.6491 29.8954 33.6345 29.9316 33.6086 29.9583C33.5826 29.985 33.5474 30 33.5107 30H30.1369C30.1004 29.9996 30.0656 29.9844 30.04 29.9578C30.0144 29.9311 30 29.8951 30 29.8577V8.3079C30 8.27041 30.0144 8.23444 30.04 8.20779C30.0656 8.18114 30.1004 8.16596 30.1369 8.16555H33.5137C33.5504 8.16555 33.5856 8.18055 33.6116 8.20725C33.6375 8.23394 33.6521 8.27015 33.6521 8.3079V11.2755C33.6519 11.3069 33.6619 11.3375 33.6805 11.3623C33.6991 11.3872 33.7253 11.405 33.7549 11.4128C33.7845 11.4206 33.8157 11.4181 33.8437 11.4055C33.8717 11.393 33.8948 11.3712 33.9093 11.3436C34.9367 9.40333 36.8966 8 39.5394 8C40.0463 8 40.5232 8.03249 40.8781 8.06963C40.912 8.07348 40.9433 8.0902 40.9659 8.11653C40.9884 8.14286 41.0006 8.1769 41 8.21197V11.7118Z" fill="#ffffff"/>
<path d="M53.2852 26.6599C56.2168 26.6599 58.0005 24.794 58.6593 22.1354C58.6641 22.115 58.6732 22.0958 58.6861 22.0794C58.699 22.0629 58.7154 22.0496 58.7339 22.0403C58.7525 22.031 58.7729 22.026 58.7936 22.0257C58.8143 22.0253 58.8348 22.0296 58.8537 22.0383L61.9164 23.478C61.9481 23.4928 61.9733 23.5187 61.9875 23.551C62.0017 23.5833 62.0039 23.6197 61.9936 23.6535C60.9135 27.2709 57.7736 30 53.2852 30C47.2061 30 43 25.3 43 18.4992C43 11.6498 47.2061 7 53.2852 7C57.7752 7 60.8456 9.60534 61.9118 13.2227C61.9216 13.2559 61.9195 13.2916 61.906 13.3234C61.8924 13.3552 61.8683 13.3811 61.8377 13.3966L58.8552 14.9116C58.8363 14.9208 58.8156 14.9257 58.7946 14.9258C58.7736 14.926 58.7529 14.9214 58.7338 14.9124C58.7148 14.9034 58.6979 14.8902 58.6845 14.8738C58.6711 14.8575 58.6614 14.8382 58.6562 14.8176C57.9974 12.1997 56.2199 10.3009 53.2852 10.3009C49.4125 10.3009 46.7509 13.4342 46.7509 18.4992C46.7509 23.5313 49.4125 26.6599 53.2852 26.6599Z" fill="#ffffff"/>
<path d="M65 23.6336C65 19.2201 68.2748 17.3962 73.0042 16.3774L78.0287 15.2972C78.0599 15.2906 78.088 15.273 78.1082 15.2472C78.1284 15.2214 78.1395 15.1891 78.1396 15.1557V14.3396C78.1396 11.794 76.8048 10.3522 73.9749 10.3522C71.3563 10.3522 69.7878 11.6195 69.1197 13.9937C69.1102 14.0294 69.0879 14.0599 69.0574 14.0786C69.0269 14.0974 68.9907 14.103 68.9564 14.0943L65.788 13.2327C65.7697 13.2276 65.7526 13.2188 65.7377 13.2066C65.7227 13.1945 65.7103 13.1793 65.701 13.162C65.6918 13.1446 65.686 13.1256 65.684 13.1058C65.6819 13.0861 65.6837 13.0662 65.6891 13.0472C66.7378 9.5173 69.8298 7 74.0963 7C78.8272 7 81.7364 9.41824 81.7364 14.1714V24.9906C81.7364 26.3758 82.5184 26.8616 83.8337 26.5975C83.8537 26.5931 83.8743 26.5933 83.8941 26.5983C83.914 26.6033 83.9325 26.6128 83.9484 26.6262C83.9643 26.6395 83.9772 26.6565 83.9861 26.6757C83.995 26.6949 83.9998 26.716 84 26.7374V29.4858C83.998 29.5216 83.9845 29.5556 83.9616 29.5822C83.9387 29.6088 83.9079 29.6264 83.8742 29.6321C80.8571 30.0016 79.0639 29.2767 78.5276 27.3836C78.5215 27.3584 78.5089 27.3355 78.4912 27.3173C78.4735 27.2991 78.4513 27.2863 78.4272 27.2805C78.403 27.2746 78.3778 27.2759 78.3543 27.2841C78.3308 27.2923 78.3099 27.3072 78.2939 27.327C76.9711 28.9465 74.6985 30 71.9525 30C68.113 29.9984 65 27.6211 65 23.6336ZM78.1396 18.2437L74.0154 19.1777C70.781 19.8569 68.5984 20.7909 68.5984 23.4638C68.5984 25.6274 70.0964 26.9009 72.399 26.9009C75.5119 26.9009 78.1396 24.9057 78.1396 22.0629V18.2437Z" fill="#ffffff"/>
<path d="M86 18.806C86 12.6746 89.4584 7.6136 95.4998 7.6136C98.3514 7.6136 100.653 8.87923 101.995 10.7655C102.013 10.7896 102.037 10.8076 102.066 10.8167C102.094 10.8259 102.125 10.8258 102.154 10.8164C102.182 10.807 102.207 10.7889 102.224 10.7646C102.242 10.7404 102.25 10.7113 102.25 10.6816V0.140287C102.25 0.10308 102.265 0.0673979 102.291 0.041089C102.318 0.0147802 102.354 0 102.392 0L105.858 0C105.896 0 105.932 0.0147802 105.958 0.041089C105.985 0.0673979 106 0.10308 106 0.140287V29.4068C106 29.444 105.985 29.4797 105.958 29.506C105.932 29.5323 105.896 29.5471 105.858 29.5471H102.392C102.354 29.5471 102.318 29.5323 102.291 29.506C102.265 29.4797 102.25 29.444 102.25 29.4068V26.8969C102.25 26.8673 102.242 26.8382 102.224 26.8139C102.207 26.7897 102.182 26.7715 102.154 26.7621C102.125 26.7527 102.094 26.7526 102.066 26.7618C102.037 26.771 102.013 26.7889 101.995 26.8131C100.653 28.7344 98.3514 30 95.4998 30C89.4584 30 86 24.8963 86 18.806ZM96.1621 10.8646C92.08 10.8646 89.7873 14.1568 89.7873 18.806C89.7873 23.4157 92.08 26.749 96.1621 26.749C99.25 26.749 102.329 24.5258 102.329 19.5822V18.0573C102.338 13.0451 99.25 10.8646 96.1621 10.8646Z" fill="#ffffff"/>
<path d="M115.849 9H112.152C112.068 9 112 9.06292 112 9.14054V29.8595C112 29.9371 112.068 30 112.152 30H115.849C115.932 30 116 29.9371 116 29.8595V9.14054C116 9.06292 115.932 9 115.849 9Z" fill="#ffffff"/>
<path d="M120 23.6336C120 19.2201 123.275 17.3962 128.004 16.3774L133.029 15.2972C133.06 15.2906 133.088 15.273 133.108 15.2472C133.128 15.2214 133.139 15.1891 133.14 15.1557V14.3396C133.14 11.794 131.805 10.3522 128.975 10.3522C126.356 10.3522 124.78 11.6195 124.12 13.9937C124.11 14.0294 124.088 14.0599 124.057 14.0786C124.027 14.0974 123.991 14.103 123.956 14.0943L120.788 13.2327C120.77 13.2276 120.753 13.2188 120.738 13.2066C120.723 13.1945 120.71 13.1793 120.701 13.162C120.692 13.1446 120.686 13.1256 120.684 13.1058C120.682 13.0861 120.684 13.0662 120.689 13.0472C121.738 9.5173 124.83 7 129.096 7C133.827 7 136.736 9.41824 136.736 14.1714V24.9906C136.736 26.3758 137.518 26.8616 138.834 26.5975C138.854 26.5931 138.874 26.5933 138.894 26.5983C138.914 26.6033 138.932 26.6128 138.948 26.6262C138.964 26.6395 138.977 26.6565 138.986 26.6757C138.995 26.6949 139 26.716 139 26.7374V29.4858C138.998 29.5216 138.985 29.5556 138.962 29.5822C138.939 29.6088 138.908 29.6264 138.874 29.6321C135.857 30.0016 134.064 29.2767 133.528 27.3836C133.521 27.3584 133.509 27.3355 133.491 27.3173C133.473 27.2991 133.451 27.2863 133.427 27.2805C133.403 27.2746 133.378 27.2759 133.354 27.2841C133.331 27.2923 133.31 27.3072 133.294 27.327C131.971 28.9465 129.698 30 126.953 30C123.113 29.9984 120 27.6211 120 23.6336ZM133.14 18.2437L129.015 19.1777C125.781 19.8569 123.598 20.7909 123.598 23.4638C123.598 25.6274 125.096 26.9009 127.399 26.9009C130.512 26.9009 133.14 24.9057 133.14 22.0629V18.2437Z" fill="#ffffff"/>
<path d="M116.674 4.88557C116.289 4.4998 116.073 3.97725 116.073 3.43233V2.56739C116.073 2.02246 116.289 1.49991 116.674 1.11415L116.926 0.862496C116.949 0.839856 116.967 0.812875 116.979 0.783119C116.992 0.753364 116.998 0.72143 116.998 0.689173C116.998 0.656917 116.992 0.624982 116.979 0.595227C116.967 0.565472 116.949 0.53849 116.926 0.515851L116.483 0.0725462C116.46 0.0495689 116.433 0.0313225 116.403 0.0188681C116.374 0.00641372 116.342 0 116.309 0C116.277 0 116.245 0.00641372 116.215 0.0188681C116.186 0.0313225 116.159 0.0495689 116.136 0.0725462L115.884 0.324197C115.499 0.709067 114.976 0.925398 114.432 0.925825H113.567C113.023 0.925322 112.501 0.708969 112.116 0.324197L111.863 0.0725462C111.84 0.0495689 111.813 0.0313225 111.783 0.0188681C111.753 0.00641372 111.722 0 111.689 0C111.657 0 111.625 0.00641372 111.595 0.0188681C111.566 0.0313225 111.539 0.0495689 111.516 0.0725462L111.071 0.515851C111.026 0.562016 111 0.624288 111 0.689173C111 0.754059 111.026 0.816331 111.071 0.862496L111.324 1.11415C111.709 1.49991 111.925 2.02246 111.926 2.56739V3.43233C111.925 3.97725 111.709 4.4998 111.324 4.88557L111.071 5.13222C111.026 5.17839 111 5.24066 111 5.30554C111 5.37043 111.026 5.4327 111.071 5.47887L111.516 5.92384C111.562 5.96943 111.624 5.995 111.689 5.995C111.754 5.995 111.816 5.96943 111.863 5.92384L112.116 5.67552C112.501 5.29034 113.024 5.07395 113.569 5.07389H114.433C114.703 5.07387 114.97 5.12699 115.219 5.23023C115.468 5.33346 115.694 5.48477 115.884 5.67552L116.138 5.92884C116.184 5.97443 116.246 6 116.311 6C116.376 6 116.438 5.97443 116.484 5.92884L116.927 5.48387C116.95 5.46123 116.969 5.43424 116.981 5.40449C116.994 5.37473 117 5.3428 117 5.31054C117 5.27829 116.994 5.24635 116.981 5.2166C116.969 5.18684 116.95 5.15986 116.927 5.13722L116.674 4.88557Z" fill="#ffffff"/>
<path d="M15.5828 2.21099e-06H11.4233C11.3951 -0.000159247 11.3675 0.00852576 11.3443 0.0248729C11.3212 0.04122 11.3035 0.0644334 11.2938 0.0913476L0.00932464 29.8065C0.00116321 29.8281 -0.00170345 29.8513 0.000972424 29.8743C0.0036483 29.8973 0.0117862 29.9192 0.0246828 29.9383C0.0375794 29.9573 0.0548468 29.9729 0.0749925 29.9837C0.0951383 29.9944 0.117556 30 0.140309 30H3.78504C3.8134 30 3.84111 29.9913 3.86449 29.975C3.88788 29.9587 3.90585 29.9356 3.91602 29.9087L6.84186 22.1025L8.15628 18.5927L13.2875 4.85989C13.2976 4.83288 13.3156 4.80964 13.339 4.79323C13.3623 4.77683 13.3901 4.76805 13.4185 4.76805C13.4469 4.76805 13.4747 4.77683 13.4981 4.79323C13.5215 4.80964 13.5394 4.83288 13.5495 4.85989L18.7615 18.5927L20.0774 22.1025L23.0429 29.9087C23.053 29.9356 23.071 29.9587 23.0944 29.975C23.1178 29.9913 23.1455 30 23.1738 30H26.8597C26.8824 30 26.9049 29.9944 26.925 29.9837C26.9452 29.9729 26.9624 29.9573 26.9753 29.9383C26.9882 29.9192 26.9963 29.8973 26.999 29.8743C27.0017 29.8513 26.9988 29.8281 26.9907 29.8065L15.7138 0.0913476C15.7036 0.0644356 15.6857 0.0412952 15.6623 0.0249854C15.6389 0.00867548 15.6112 -3.60675e-05 15.5828 2.21099e-06Z" fill="#ffffff"/>
<path d="M16.6755 21.8774C16.4848 21.6871 16.3335 21.4612 16.2302 21.2124C16.127 20.9637 16.0739 20.6971 16.0739 20.4279V19.5641C16.074 19.0199 16.2903 18.4979 16.6755 18.1129L16.9288 17.8616C16.9744 17.8155 17 17.7533 17 17.6885C17 17.6237 16.9744 17.5615 16.9288 17.5154L16.4839 17.0711C16.4377 17.0255 16.3754 17 16.3105 17C16.2457 17 16.1834 17.0255 16.1372 17.0711L15.8939 17.324C15.5083 17.7087 14.9857 17.9248 14.4407 17.9248H13.5607C13.2911 17.9248 13.0241 17.8718 12.7751 17.7687C12.526 17.6656 12.2997 17.5145 12.1091 17.324L11.8558 17.0711C11.8097 17.0255 11.7474 17 11.6825 17C11.6176 17 11.5553 17.0255 11.5092 17.0711L11.0725 17.5237C11.0496 17.5463 11.0313 17.5733 11.0189 17.603C11.0064 17.6327 11 17.6646 11 17.6968C11 17.729 11.0064 17.7609 11.0189 17.7906C11.0313 17.8204 11.0496 17.8473 11.0725 17.8699L11.3242 18.1212C11.7094 18.5062 11.9258 19.0282 11.9258 19.5724V20.4362C11.9258 20.7054 11.8727 20.972 11.7695 21.2208C11.6663 21.4695 11.5149 21.6954 11.3242 21.8857L11.0725 22.1387C11.0496 22.1613 11.0313 22.1883 11.0189 22.218C11.0064 22.2477 11 22.2796 11 22.3118C11 22.344 11.0064 22.3759 11.0189 22.4056C11.0313 22.4353 11.0496 22.4623 11.0725 22.4849L11.5159 22.9276C11.5385 22.9505 11.5655 22.9687 11.5952 22.9812C11.625 22.9936 11.6569 23 11.6892 23C11.7214 23 11.7534 22.9936 11.7831 22.9812C11.8129 22.9687 11.8399 22.9505 11.8625 22.9276L12.1158 22.6763C12.4977 22.2901 13.0173 22.0711 13.5607 22.0671H14.4257C14.9707 22.0672 15.4933 22.2833 15.8789 22.6679L16.1306 22.9192C16.1532 22.9422 16.1802 22.9604 16.2099 22.9728C16.2397 22.9853 16.2716 22.9917 16.3039 22.9917C16.3361 22.9917 16.3681 22.9853 16.3978 22.9728C16.4276 22.9604 16.4546 22.9422 16.4772 22.9192L16.9222 22.4765C16.9678 22.4304 16.9933 22.3683 16.9933 22.3035C16.9933 22.2387 16.9678 22.1765 16.9222 22.1304L16.6755 21.8774Z" fill="#ffffff"/>
</svg>